<?xml version="1.0" standalone="no"?>
<!DOCTYPE svg PUBLIC "-//W3C//DTD SVG 20010904//EN"
 "http://www.w3.org/TR/2001/REC-SVG-20010904/DTD/svg10.dtd">
<svg version="1.0" xmlns="http://www.w3.org/2000/svg"
 width="2000.000000pt" height="1000.000000pt" viewBox="0 0 2000.000000 1000.000000"
 preserveAspectRatio="xMidYMid meet">

<g fill="#ffffff" stroke="#ffffff">
<path d="M16835 8844 c-366 -324 -1012 -600 -1504 -644 -69 -5 -119 -15 -126
-22 -6 -7 -65 -85 -131 -173 -65 -88 -191 -250 -279 -360 -239 -297 -907
-1110 -915 -1113 -4 -2 -27 45 -50 103 -90 224 -232 359 -457 435 -86 29 -114
34 -228 38 -148 4 -223 -8 -350 -57 -110 -42 -224 -119 -324 -219 -46 -45 -84
-82 -85 -80 -2 2 -13 20 -25 40 -81 136 -234 249 -397 294 -79 22 -274 30
-361 14 -336 -58 -646 -379 -898 -930 -107 -233 -875 -2102 -909 -2212 -48
-153 -67 -270 -68 -413 0 -148 19 -244 70 -350 173 -361 601 -406 977 -104 41
34 94 85 117 115 l42 53 25 -52 c32 -69 158 -193 236 -234 119 -62 186 -78
330 -78 120 1 137 3 225 33 142 49 238 110 357 228 90 90 102 99 107 80 9 -38
81 -139 136 -193 110 -108 255 -159 425 -150 114 7 186 27 300 84 143 73 303
209 457 390 l70 83 189 -271 c104 -149 208 -293 232 -321 53 -64 207 -196 335
-287 204 -145 597 -367 737 -414 l45 -16 0 44 c0 63 -35 326 -65 490 -54 294
-144 602 -223 764 -21 42 -158 263 -305 492 -147 229 -267 419 -267 422 0 26
492 109 870 146 344 34 489 42 900 48 626 9 1011 -24 1411 -122 l138 -35 66
30 c182 82 542 189 820 245 268 54 391 68 591 69 214 1 209 -7 79 122 -335
331 -1025 558 -1985 653 -343 34 -511 42 -1130 51 -598 9 -807 18 -1043 45
-71 8 -134 15 -140 15 -7 0 -18 4 -26 9 -16 11 -58 -46 499 671 446 573 689
894 842 1110 447 634 680 1097 705 1402 3 37 4 68 2 68 -2 -1 -22 -17 -44 -36z
m-3938 -3186 c69 -38 91 -111 61 -199 -23 -69 -351 -876 -375 -923 -34 -67
-112 -142 -181 -174 l-57 -27 -380 -3 c-425 -3 -448 -1 -486 62 -42 68 -35 93
165 589 102 252 197 478 211 503 35 59 94 118 145 144 91 46 123 49 505 47
320 -2 364 -4 392 -19z"/>
<path d="M4860 7815 c0 -63 35 -326 65 -490 55 -298 145 -606 225 -767 22 -43
159 -265 305 -492 146 -227 265 -416 265 -419 0 -15 -250 -66 -500 -102 -404
-58 -767 -85 -1270 -92 -626 -9 -1011 24 -1411 122 l-138 35 -68 -31 c-101
-46 -428 -153 -588 -193 -334 -83 -579 -119 -821 -120 -214 -1 -209 7 -79
-122 335 -331 1025 -558 1985 -653 343 -34 511 -42 1130 -51 598 -9 807 -18
1043 -45 71 -8 134 -15 140 -15 7 0 18 -4 26 -9 16 -11 58 46 -499 -671 -446
-573 -689 -894 -842 -1110 -447 -634 -678 -1093 -705 -1400 l-6 -74 44 38
c391 336 1013 602 1508 646 69 5 119 15 126 22 6 7 65 85 131 173 65 88 191
250 279 360 239 297 907 1110 915 1113 4 2 27 -45 50 -103 90 -224 232 -359
457 -435 86 -29 114 -34 228 -38 148 -4 223 8 350 57 110 42 224 119 324 219
46 45 84 82 85 80 2 -2 13 -20 25 -40 81 -136 234 -249 397 -294 79 -22 274
-30 361 -14 336 58 646 379 898 930 107 233 875 2103 909 2212 48 153 67 270
67 413 0 148 -19 244 -69 350 -173 361 -601 406 -977 104 -41 -34 -94 -85
-117 -115 l-42 -53 -25 52 c-32 69 -158 193 -236 234 -119 62 -186 78 -330 78
-120 -1 -137 -3 -225 -33 -142 -49 -238 -110 -357 -228 -90 -90 -102 -99 -107
-80 -9 38 -81 139 -136 193 -110 108 -255 159 -425 150 -114 -7 -186 -27 -300
-84 -143 -73 -303 -209 -457 -390 l-70 -83 -189 271 c-104 149 -208 293 -232
321 -53 64 -207 196 -335 287 -204 145 -597 367 -737 414 l-45 16 0 -44z
m3607 -2164 c51 -24 73 -63 73 -128 0 -40 -34 -132 -184 -506 -102 -252 -197
-478 -211 -503 -57 -98 -147 -160 -262 -184 -33 -7 -177 -10 -400 -8 -380 3
-385 4 -432 64 -27 34 -28 102 -2 175 31 88 341 850 368 903 47 92 147 172
248 197 17 4 194 7 395 8 338 1 368 -1 407 -18z"/>
</g>
</svg>
